# xmcd
#
# Track frame offsets: 
#        150
#        10745
#        20212
#        32190
#        42907
#        52308
#        63186
#        72614
#        83485
#        91806
#        104154
#        114648
#        125557
#        137003
#        150034
#        159656
#        169958
#        180306
#        189951
#        203189
#
# Disc length: 2852 seconds
#
# Revision: 0
# Processed by: cddbd v1.5.2PL0 Copyright (c) Steve Scherf et al.
# Submitted via: ExactAudioCopy v0.99pb5
#
DISCID=110b2214
DTITLE=Everly Brothers  - 100 Hits Legends - CD 4
DYEAR=1900
DGENRE=
TTITLE0=Ferris Wheel
TTITLE1=Gone,Gone,Gone
TTITLE2=I Walk The Line
TTITLE3=That'll Be The Day
TTITLE4=Ain't That Lovin' You Baby
TTITLE5=Thats Old Fashioned
TTITLE6=When it's Night Time In Italy, It's Wednesday Over Here
TTITLE7=Born To Loose
TTITLE8=Im Afraid
TTITLE9=Theme From "Carnival" (Love Makes The World Go Round)
TTITLE10=Just One Time
TTITLE11=Please Help Me, I'm Falling (In Love With You)
TTITLE12=Send Me The Pillow You Dream On
TTITLE13=Love Is Strange
TTITLE14=The Price Of Love
TTITLE15=Silver Threads And Golden Needles
TTITLE16=Oh Lonesome Me
TTITLE17=Don't Forget To Cry
TTITLE18=I'm So Lonesome I Could Cry
TTITLE19=Torture
EXTD=
EXTT0=
EXTT1=
EXTT2=
EXTT3=
EXTT4=
EXTT5=
EXTT6=
EXTT7=
EXTT8=
EXTT9=
EXTT10=
EXTT11=
EXTT12=
EXTT13=
EXTT14=
EXTT15=
EXTT16=
EXTT17=
EXTT18=
EXTT19=
PLAYORDER=
